<svg viewBox="0 0 128 128" xmlns="http://www.w3.org/2000/svg">
  <rect width="128" height="128" fill="#F7DF1E"></rect>
  <path d="M89.2 100.6c2.6 4.3 6 7.4 12 7.4 5 0 8.2-2.5 8.2-6 0-4.2-3.3-5.7-8.8-8.1l-3-1.3c-8.7-3.7-14.5-8.3-14.5-18.1 0-9 6.9-15.9 17.7-15.9 7.7 0 13.2 2.7 17.2 9.7l-9.4 6c-2.1-3.7-4.3-5.1-7.8-5.1s-5.8 2.2-5.8 5.1c0 3.6 2.2 5 7.3 7.2l3 1.3c10.3 4.4 16.1 8.9 16.1 19 0 10.9-8.6 16.9-20.2 16.9-11.3 0-18.6-5.4-22.2-12.4zM41.4 101.6c1.9 3.4 3.6 6.3 7.7 6.3 3.9 0 6.4-1.5 6.4-7.4V58.8h11.9v41.9c0 12.7-7.4 18.5-18.2 18.5-9.7 0-15.3-5-18.2-11z" fill="#000"></path>
</svg>